{"title":"The Bag Man (2014) NTSC DD5.1 NL Subs BR2DVD-NLU002","uid":9739303,"size":4680813079,"categoryP":"video","categoryS":"movies_dvdr","magnet":"?xt=urn:btih:c1476b601a8e17a15b16bcb9500c5cb61e085935&amp;dn=The+Bag+Man+%282014%29+NTSC+DD5.1+NL+Subs+BR2DVD-NLU002&amp;tr=udp%3A%2F%2Ftracker.openbittorrent.com%3A80&amp;tr=udp%3A%2F%2Fopen.demonii.com%3A1337&amp;tr=udp%3A%2F%2Ftracker.coppersurfer.tk%3A6969&amp;tr=udp%3A%2F%2Fexodus.desync.com%3A6969","seeders":1,"leechers":0,"uploader":"NLUPPER002","files":-1,"time":1394484760,"description":"The Bag Man (2014) NTSC DD5.1 NL Subs BR2DVD-NLU002\n.\n108 min  -  Crime | Drama | Thriller  -  20 March 2014 (Macedonia) \nRated R for violence, sexual content and language\n. &lt;a href=&quot;\nhttp://www.imdb.com/title/tt2212008&quot; rel=&quot;nofollow&quot; target=&quot;_NEW&quot;&gt;\nhttp://www.imdb.com/title/tt2212008&lt;/a&gt;\n. &lt;a href=&quot;\nhttp://www.moviemeter.nl/film/90906&quot; rel=&quot;nofollow&quot; target=&quot;_NEW&quot;&gt;\nhttp://www.moviemeter.nl/film/90906&lt;/a&gt;\n.\nPLOT\n.\nA criminal bides his time at a seedy motel, waiting for his boss after killing several men and making away with a mystery bag.\n.\nSource: 1080p\nFormat: DVD5\nVideo: NTSC @2passes TMPGEnc Video Mastering Works 5\nAudio: English DD5.1\nSubtitles: Dutch White and yellow\nNL vertaling: Bere\nControle en bewerking: Goffini\n.\nEnjoy another quality from NLU002\n.\nInfo first vob file\n.\nVideo\nID                                       : 224 (0xE0)\nFormat                                   : MPEG Video\nFormat version                           : Version 2\nFormat profile                           : Main@Main\nFormat settings, BVOP                    : Yes\nFormat settings, Matrix                  : Custom\nFormat settings, GOP                     : Variable\nDuration                                 : 25mn 7s\nBit rate                                 : 5 138 Kbps\nMaximum bit rate                         : 6 019 Kbps\nWidth                                    : 720 pixels\nHeight                                   : 480 pixels\nDisplay aspect ratio                     : 16:9\nFrame rate                               : 23.976 fps\nStandard                                 : NTSC\nColor space                              : YUV\nChroma subsampling                       : 4:2:0\nBit depth                                : 8 bits\nScan type                                : Progressive\nScan order                               : 2:3 Pulldown\nCompression mode                         : Lossy\nBits/(Pixel*Frame)                       : 0.620\nTime code of first frame                 : 00:00:00:00\nTime code source                         : Group of pictures header\nStream size                              : 923 MiB (90%)\nColor primaries                          : BT.601 NTSC\nTransfer characteristics                 : BT.601\nMatrix coefficients                      : BT.601\n\nAudio\nID                                       : 189 (0xBD)-128 (0x80)\nFormat                                   : AC-3\nFormat/Info                              : Audio Coding 3\nMode extension                           : CM (complete main)\nFormat settings, Endianness              : Big\nMuxing mode                              : DVD-Video\nDuration                                 : 25mn 6s\nBit rate mode                            : Constant\nBit rate                                 : 448 Kbps\nChannel(s)                               : 6 channels\nChannel positions                        : Front: L C R, Side: L R, LFE\nSampling rate                            : 48.0 KHz\nBit depth                                : 16 bits\nCompression mode                         : Lossy\nStream size                              : 80.5 MiB (8%)\n","torrent":{"xt":"urn:btih:c1476b601a8e17a15b16bcb9500c5cb61e085935","amp;dn":"The+Bag+Man+%282014%29+NTSC+DD5.1+NL+Subs+BR2DVD-NLU002","amp;tr":["udp%3A%2F%2Ftracker.openbittorrent.com%3A80","udp%3A%2F%2Fopen.demonii.com%3A1337","udp%3A%2F%2Ftracker.coppersurfer.tk%3A6969","udp%3A%2F%2Fexodus.desync.com%3A6969"],"infoHash":"c1476b601a8e17a15b16bcb9500c5cb61e085935","infoHashBuffer":{"type":"Buffer","data":[193,71,107,96,26,142,23,161,91,22,188,185,80,12,92,182,30,8,89,53]},"announce":[],"urlList":[]}}